<svg xmlns="http://www.w3.org/2000/svg" viewBox="0 0 24 24" width="24" height="24" fill="none">
  <title>Apple icon</title>
  <path fill="#1D1D1F" d="M17.05 12.536c-.03-3.03 2.473-4.484 2.585-4.552-1.417-2.072-3.623-2.355-4.406-2.377-1.854-.195-3.65 1.11-4.594 1.11-.963 0-2.418-1.09-3.985-1.058-2.016.031-3.904 1.2-4.938 3.017-2.136 3.699-.543 9.136 1.504 12.126 1.024 1.465 2.22 3.102 3.785 3.044 1.53-.064 2.102-.978 3.95-.978 1.83 0 2.367.978 3.962.941 1.644-.027 2.68-1.473 3.668-2.952 1.184-1.68 1.66-3.333 1.679-3.418-.039-.014-3.18-1.213-3.21-4.903Z" transform="scale(.9) translate(1.5 -1)"/>
  <path fill="#1D1D1F" d="M14.02 3.64c.823-1.029 1.386-2.428 1.23-3.83-1.193.053-2.686.826-3.544 1.832-.76.887-1.439 2.34-1.264 3.69 1.342.102 2.696-.677 3.578-1.692Z" transform="scale(.9) translate(1.5 1.7)"/>
</svg>
